<svg xmlns="http://www.w3.org/2000/svg" width="22" height="22" viewBox="0 0 22 22"><g><g><path fill="#b99403" d="M16.162 1.828a2.823 2.823 0 0 0 0 3.998 2.837 2.837 0 0 0 4.007 0l1.62-1.618c.124.465.21.943.21 1.446a5.66 5.66 0 0 1-5.665 5.655c-.51 0-.996-.089-1.467-.215-.015.016-.02.038-.036.055L4.814 21.145a2.837 2.837 0 0 1-4.006 0 2.823 2.823 0 0 1 0-3.999L10.824 7.15c.017-.017.04-.021.058-.038a5.587 5.587 0 0 1-.214-1.458A5.66 5.66 0 0 1 16.334 0c.504 0 .984.087 1.45.21zM2.877 18.378a.708.708 0 1 0-.001 1.414.708.708 0 0 0 .001-1.415z"/></g></g></svg>