<svg xmlns="http://www.w3.org/2000/svg" width="28" height="21" viewBox="0 0 28 21"><g><g><path fill="#b99403" d="M27.692 20.183l-9.655-9.656 7.145-7.146L27.715.85c.165.267.285.564.285.9v17.5c0 .352-.13.66-.308.934zm-3.128-17.42l-3.26 3.259-6.237 6.237-1.094 1.095L3.436 2.817l-1.75-1.75L.882.263C1.142.111 1.427 0 1.75 0h24.5c.308 0 .583.101.835.241l-.88.881zM9.88 10.5L.263 20.118C.111 19.858 0 19.573 0 19.25V1.75c0-.323.111-.608.263-.868l.804.804zm.619.619l.37.369.131.132 1.203 1.203 1.75 1.75.073-.073.019.018 1.64-1.64 1.732-1.732 9.634 9.634c-.243.129-.508.22-.802.22H1.75c-.323 0-.608-.111-.868-.264z"/></g></g></svg>