<svg xmlns="http://www.w3.org/2000/svg" width="159" height="133" viewBox="0 0 159 133"><g><g><path fill="#bc7d00" d="M158.522 15.312l-14.817 15.313v2.553c0 2.799-.436 5.472-1.067 8.069-.345 21.066-6.838 49-33.506 71.05C56.676 155.668.476 117.402.476 117.402c44.45 0 44.45-15.314 44.45-15.314-9.877 0-29.633-20.417-29.633-20.417 4.939 5.104 14.817 0 14.817 0C5.415 66.357 5.415 51.044 5.415 51.044c4.939 5.104 14.817 0 14.817 0-24.695-20.419-9.878-45.94-9.878-45.94 4.939 25.521 69.145 35.73 69.145 35.73l.817-.422c-.504-2.334-.817-7.294-.817-9.787C79.499 12.302 93.872 0 111.602 0c9.758 0 18.394 4.596 24.28 11.699l2.884-1.49L153.583 0l-9.878 20.418z"/></g></g></svg>